<?xml version="1.0" encoding="utf-8"?>
<!-- Generated by IcoMoon.io -->
<!DOCTYPE svg PUBLIC "-//W3C//DTD SVG 1.1//EN" "http://www.w3.org/Graphics/SVG/1.1/DTD/svg11.dtd">
<svg version="1.1" xmlns="http://www.w3.org/2000/svg" xmlns:xlink="http://www.w3.org/1999/xlink" width="500" height="500" viewBox="0 0 500 500">
<path d="M166.574 117.466v327.288c0 8.649-4.185 16.741-13.672 16.741-3.348 0-6.417-0.837-9.208-2.232l-129.743-65.011c-7.813-3.906-13.951-13.951-13.951-22.321v-318.081c0-6.976 3.348-13.393 10.882-13.393 4.464 0 8.371 2.232 12.277 4.185l142.578 71.429c0.279 0.279 0.837 1.116 0.837 1.395zM184.431 145.647l148.996 241.629-148.996-74.219v-167.411zM500 150.669v294.085c0 9.208-5.301 15.625-14.509 15.625-4.743 0-9.208-1.395-13.114-3.627l-123.047-61.384zM499.163 117.188c0 1.116-144.252 235.212-155.413 253.069l-108.817-176.897 90.402-147.042c3.069-5.022 8.649-7.813 14.509-7.813 2.511 0 5.022 0.558 7.254 1.674l150.949 75.335c0.558 0.279 1.116 0.837 1.116 1.674z"></path>
</svg>
