<?xml version="1.0" encoding="utf-8"?>
<!-- Generated by IcoMoon.io -->
<!DOCTYPE svg PUBLIC "-//W3C//DTD SVG 1.1//EN" "http://www.w3.org/Graphics/SVG/1.1/DTD/svg11.dtd">
<svg version="1.1" xmlns="http://www.w3.org/2000/svg" xmlns:xlink="http://www.w3.org/1999/xlink" width="500" height="500" viewBox="0 0 500 500">
<path d="M62.5 104.167h375q8.626 0 14.73 6.104t6.104 14.73-6.104 14.73-14.73 6.104h-375q-8.626 0-14.73-6.104t-6.104-14.73 6.104-14.73 14.73-6.104zM62.5 354.167h375q8.626 0 14.73 6.104t6.104 14.73-6.104 14.73-14.73 6.104h-375q-8.626 0-14.73-6.104t-6.104-14.73 6.104-14.73 14.73-6.104zM62.5 229.167h375q8.626 0 14.73 6.104t6.104 14.73-6.104 14.73-14.73 6.104h-375q-8.626 0-14.73-6.104t-6.104-14.73 6.104-14.73 14.73-6.104z"></path>
</svg>
